<?xml version="1.0" encoding="UTF-8" standalone="no"?>
<!-- Created with Inkscape (http://www.inkscape.org/) -->

<svg
   xmlns:osb="http://www.openswatchbook.org/uri/2009/osb"
   xmlns:dc="http://purl.org/dc/elements/1.1/"
   xmlns:cc="http://creativecommons.org/ns#"
   xmlns:rdf="http://www.w3.org/1999/02/22-rdf-syntax-ns#"
   xmlns:svg="http://www.w3.org/2000/svg"
   xmlns="http://www.w3.org/2000/svg"
   xmlns:sodipodi="http://sodipodi.sourceforge.net/DTD/sodipodi-0.dtd"
   xmlns:inkscape="http://www.inkscape.org/namespaces/inkscape"
   width="206.23087"
   height="19.820705"
   viewBox="0 0 54.565249 5.2442285"
   version="1.1"
   id="svg8"
   inkscape:version="0.92.4 (unknown)"
   sodipodi:docname="2.svg">
  <defs
     id="defs2">
    <linearGradient
       id="linearGradient4616"
       osb:paint="solid">
      <stop
         style="stop-color:#fae65b;stop-opacity:0.92941177;"
         offset="0"
         id="stop4614" />
    </linearGradient>
  </defs>
  <sodipodi:namedview
     id="base"
     pagecolor="#ffffff"
     bordercolor="#666666"
     borderopacity="1.0"
     inkscape:pageopacity="0.0"
     inkscape:pageshadow="2"
     inkscape:zoom="4.4535688"
     inkscape:cx="120.87022"
     inkscape:cy="37.298383"
     inkscape:document-units="px"
     inkscape:current-layer="layer1"
     showgrid="false"
     units="px"
     inkscape:snap-grids="true"
     showguides="true"
     inkscape:guide-bbox="true"
     inkscape:lockguides="true"
     inkscape:showpageshadow="false"
     inkscape:pagecheckerboard="false"
     showborder="true"
     fit-margin-top="0"
     fit-margin-left="0"
     fit-margin-right="0"
     fit-margin-bottom="0"
     inkscape:window-width="1920"
     inkscape:window-height="996"
     inkscape:window-x="0"
     inkscape:window-y="0"
     inkscape:window-maximized="1">
    <sodipodi:guide
       position="47.369619,-151.13165"
       orientation="0,1"
       id="guide4664"
       inkscape:locked="true" />
  </sodipodi:namedview>
  <metadata
     id="metadata5">
    <rdf:RDF>
      <cc:Work
         rdf:about="">
        <dc:format>image/svg+xml</dc:format>
        <dc:type
           rdf:resource="http://purl.org/dc/dcmitype/StillImage" />
        <dc:title />
      </cc:Work>
    </rdf:RDF>
  </metadata>
  <g
     inkscape:label="Layer 1"
     inkscape:groupmode="layer"
     id="layer1"
     style="display:inline"
     transform="translate(-3.0268347,-278.33872)">
    <g
       id="g1031"
       style="fill:#ffcb78;fill-opacity:1">
      <path
         inkscape:connector-curvature="0"
         id="path4"
         d="m 29.619046,283.50799 c -0.327276,-0.0955 -0.564432,-0.25868 -0.754157,-0.52133 -0.488543,-0.67256 -0.189726,-1.48043 0.668781,-1.81472 0.341505,-0.13133 0.858506,-0.13133 1.195268,0 0.573918,0.22286 0.886964,0.6248 0.891708,1.13818 0.0047,0.26265 -0.01423,0.33429 -0.15178,0.56909 -0.341506,0.58501 -1.109893,0.84368 -1.84982,0.62878 z"
         style="fill:#ffcb78;fill-opacity:1;stroke:none;stroke-width:0.00434465" />
      <path
         inkscape:connector-curvature="0"
         id="path6"
         d="m 23.968962,282.27274 c -0.825305,-0.14725 -1.916224,-0.56113 -3.225328,-1.21777 -0.792102,-0.39399 -1.328075,-0.62879 -1.702783,-0.74022 -1.15258,-0.33827 -2.257729,-0.35419 -3.296474,-0.0478 -0.37945,0.11143 -0.958111,0.36214 -1.233213,0.54123 -0.15178,0.0995 -0.128064,0.0677 0.113835,-0.14327 0.744671,-0.64868 1.527287,-0.96307 2.513858,-1.00685 0.611864,-0.0239 1.081433,0.0279 1.693297,0.19102 0.611863,0.16317 1.081433,0.36613 1.83559,0.78797 2.423739,1.35706 4.39688,1.73513 6.17081,1.17798 0.265615,-0.0836 -0.184982,0.13133 -0.559689,0.26664 -0.763644,0.27857 -1.498829,0.33827 -2.309903,0.19102 z"
         style="fill:#ffcb78;fill-opacity:1;stroke:none;stroke-width:0.00434465" />
      <path
         inkscape:connector-curvature="0"
         id="path8"
         d="m 35.086854,282.29264 c -0.346249,-0.0637 -0.84902,-0.22684 -1.190525,-0.38603 -0.260872,-0.12337 -0.350991,-0.195 -0.113835,-0.0955 0.355734,0.15521 0.915423,0.23878 1.593691,0.23878 1.475113,0 2.874335,-0.44174 4.68621,-1.47645 0.635579,-0.36215 1.052974,-0.54123 1.669582,-0.70838 1.641121,-0.45368 3.040345,-0.20296 4.235612,0.75215 0.298818,0.2348 0.341506,0.33032 0.07115,0.15919 -0.31779,-0.20296 -1.105148,-0.51735 -1.560489,-0.61286 -0.559689,-0.12337 -1.366021,-0.14725 -1.944682,-0.0597 -0.853763,0.12735 -1.475113,0.34623 -2.627694,0.93522 -0.773129,0.39398 -2.115434,0.95113 -2.618206,1.09042 -0.792102,0.2149 -1.588948,0.2746 -2.200811,0.16317 z"
         style="fill:#ffcb78;fill-opacity:1;stroke:none;stroke-width:0.00434465" />
      <path
         inkscape:connector-curvature="0"
         id="path10"
         d="m 27.716033,281.8509 c 0.602377,-0.31042 1.204754,-0.7641 1.821361,-1.369 0.2419,-0.23878 0.09012,-0.0199 -0.208698,0.29847 -0.445854,0.47358 -1.048231,0.89542 -1.598434,1.13022 -0.417395,0.1751 -0.422138,0.15123 -0.01423,-0.0597 z"
         style="fill:#ffcb78;fill-opacity:1;stroke:none;stroke-width:0.00434465" />
      <path
         inkscape:connector-curvature="0"
         id="path12"
         d="m 32.663115,281.87875 c -0.189726,-0.0836 -0.464826,-0.23082 -0.60712,-0.32235 -0.350991,-0.22684 -0.896452,-0.72031 -1.15258,-1.03869 l -0.208698,-0.25469 0.203955,0.19898 c 0.673524,0.65266 1.22847,1.07052 1.845076,1.39288 0.426882,0.21888 0.384194,0.23081 -0.08063,0.0239 z"
         style="fill:#ffcb78;fill-opacity:1;stroke:none;stroke-width:0.00434465" />
      <path
         inkscape:connector-curvature="0"
         id="path14"
         d="m 24.514421,281.56834 c -1.0008,-0.1751 -1.636379,-0.44572 -3.173152,-1.34114 -0.920167,-0.53327 -1.859307,-0.88348 -2.826905,-1.04267 l -0.450597,-0.0756 0.640322,-0.0119 c 1.309104,-0.0279 1.826105,0.13531 3.77553,1.19389 1.645866,0.89542 2.371564,1.174 3.291731,1.26553 0.246643,0.0279 0.460084,0.0557 0.46957,0.0637 0.05692,0.0438 -1.432425,0.004 -1.726499,-0.0517 z"
         style="fill:#ffcb78;fill-opacity:1;stroke:none;stroke-width:0.00434465" />
      <path
         inkscape:connector-curvature="0"
         id="path16"
         d="m 34.356412,281.62406 c 0.01423,-0.0119 0.22767,-0.0398 0.474313,-0.0677 0.82056,-0.0796 1.588948,-0.35021 2.717813,-0.95113 0.332018,-0.17909 0.872735,-0.46562 1.209497,-0.64471 1.370763,-0.73225 1.939939,-0.88746 3.13995,-0.86358 l 0.640323,0.0119 -0.450597,0.0756 c -0.882222,0.14725 -1.845077,0.4895 -2.656153,0.94716 -0.246642,0.14327 -0.692496,0.39398 -0.986569,0.56113 -0.649809,0.37011 -1.2427,0.61684 -1.906738,0.78797 -0.464826,0.11939 -0.559689,0.12735 -1.351792,0.14327 -0.46957,0.0119 -0.844276,0.0119 -0.830047,0 z"
         style="fill:#ffcb78;fill-opacity:1;stroke:none;stroke-width:0.00434465" />
      <path
         inkscape:connector-curvature="0"
         id="path18"
         d="m 5.8502122,281.35742 c -1.2569289,-0.11541 -2.2434995,-0.8596 -2.670381,-2.00972 -0.061661,-0.17511 -0.1280645,-0.39001 -0.1470371,-0.47756 -0.018972,-0.11939 0.00474,-0.0875 0.1090921,0.13929 0.2229269,0.49745 0.5502028,0.88348 0.9960568,1.17399 1.0482313,0.67256 2.4284816,0.79195 4.9850276,0.43378 1.6079204,-0.22683 2.4095094,-0.22683 3.2300704,0 0.374707,0.10348 1.010286,0.33827 0.986571,0.36215 -0.0095,0.008 -0.189726,-0.0239 -0.398423,-0.0677 -0.327276,-0.0716 -0.531231,-0.0836 -1.446654,-0.0836 -1.337562,-0.004 -1.764444,0.0438 -4.0316592,0.44174 -0.5502029,0.0995 -1.1383508,0.12735 -1.6126636,0.0875 z"
         style="fill:#ffcb78;fill-opacity:1;stroke:none;stroke-width:0.00434465" />
      <path
         inkscape:connector-curvature="0"
         id="path20"
         d="m 53.755805,281.35742 c -0.194467,-0.0159 -0.602377,-0.0756 -0.901194,-0.13531 -1.655352,-0.31041 -2.471169,-0.39796 -3.723355,-0.39796 -0.939139,0.004 -1.313846,0.0358 -1.816618,0.15918 -0.04269,0.0119 0.04743,-0.0358 0.203954,-0.10745 0.379451,-0.17112 0.996057,-0.34225 1.413453,-0.39796 0.479055,-0.0637 1.494085,-0.0199 2.262472,0.0995 1.731241,0.26266 3.120978,0.30643 4.007943,0.12337 0.156524,-0.0318 0.483799,-0.14327 0.730442,-0.24276 0.730441,-0.30245 1.271158,-0.81583 1.54626,-1.47645 0.142293,-0.33429 0.151779,-0.2547 0.01897,0.16715 -0.493285,1.58787 -1.835591,2.37584 -3.742329,2.2087 z"
         style="fill:#ffcb78;fill-opacity:1;stroke:none;stroke-width:0.00434465" />
      <path
         inkscape:connector-curvature="0"
         id="path22"
         d="m 26.411672,281.13456 c -1.100405,-0.13531 -2.101205,-0.49348 -3.358134,-1.19787 -0.77313,-0.43379 -1.389737,-0.7044 -2.0016,-0.87951 -0.754158,-0.2149 -1.147837,-0.26663 -2.063261,-0.26663 -0.806332,0 -0.820561,0 -0.521744,-0.0517 0.426881,-0.0716 1.878279,-0.0796 2.324133,-0.0159 0.92491,0.13929 1.579461,0.35817 2.466426,0.82379 1.39448,0.73623 2.570776,1.08246 3.818218,1.12226 0.915424,0.0279 1.612664,-0.0915 2.252986,-0.39398 0.137551,-0.0677 0.118578,-0.0398 -0.118578,0.1552 -0.540717,0.43776 -1.275902,0.6845 -2.134408,0.70838 -0.284587,0.008 -0.583404,0.004 -0.664038,-0.004 z"
         style="fill:#ffcb78;fill-opacity:1;stroke:none;stroke-width:0.00434465" />
      <path
         inkscape:connector-curvature="0"
         id="path24"
         d="m 33.004621,281.09874 c -0.649809,-0.10347 -1.162066,-0.31439 -1.603178,-0.6646 -0.161266,-0.13133 -0.270359,-0.23082 -0.246643,-0.22286 0.02846,0.008 0.208698,0.0796 0.403166,0.16317 0.502772,0.20694 0.839534,0.27061 1.527287,0.29449 1.399224,0.0517 2.717814,-0.30245 4.358935,-1.16206 0.820562,-0.43378 1.470371,-0.6447 2.366821,-0.78001 0.417396,-0.0637 1.588948,-0.0716 2.063261,-0.0159 0.327276,0.0358 0.322533,0.0358 -0.403166,0.0637 -1.475113,0.0517 -2.376308,0.31837 -3.879878,1.14614 -1.868793,1.02675 -3.268016,1.38491 -4.586605,1.17797 z"
         style="fill:#ffcb78;fill-opacity:1;stroke:none;stroke-width:0.00434465" />
      <path
         inkscape:connector-curvature="0"
         id="path26"
         d="m 14.041594,280.99129 c 0.01423,-0.0716 0.08063,-0.24276 0.147037,-0.38204 0.327276,-0.69644 1.010287,-1.26553 1.973142,-1.63962 0.507514,-0.19898 0.697239,-0.23878 0.336762,-0.0716 -0.578662,0.26663 -1.024516,0.58103 -1.489342,1.04664 -0.327276,0.32633 -0.735185,0.81185 -0.877479,1.04665 -0.04269,0.0677 -0.09012,0.12735 -0.09961,0.12735 -0.0095,0 -0.0095,-0.0597 0.0095,-0.12735 z"
         style="fill:#ffcb78;fill-opacity:1;stroke:none;stroke-width:0.00434465" />
      <path
         inkscape:connector-curvature="0"
         id="path28"
         d="m 46.351783,280.80425 c -0.626093,-0.86359 -1.403966,-1.52819 -2.196069,-1.88238 -0.507514,-0.22684 -0.279844,-0.17908 0.327277,0.0637 0.877477,0.35817 1.460882,0.80787 1.816617,1.40084 0.137551,0.22684 0.322533,0.68449 0.284588,0.71235 -0.0047,0.004 -0.113835,-0.12735 -0.232413,-0.29449 z"
         style="fill:#ffcb78;fill-opacity:1;stroke:none;stroke-width:0.00434465" />
      <path
         inkscape:connector-curvature="0"
         id="path30"
         d="m 12.851069,280.30679 c -0.901194,-0.28255 -1.081433,-1.27747 -0.322532,-1.76298 0.251385,-0.15919 0.53123,-0.22684 0.844276,-0.19898 0.298817,0.0239 0.507515,0.11143 0.744671,0.29847 0.194469,0.15919 0.365221,0.48552 0.365221,0.7044 0,0.34225 -0.313046,0.74817 -0.711469,0.91532 -0.218184,0.0955 -0.687753,0.11541 -0.920167,0.0438 z"
         style="fill:#ffcb78;fill-opacity:1;stroke:none;stroke-width:0.00434465" />
      <path
         inkscape:connector-curvature="0"
         id="path32"
         d="m 26.411672,281.13456 c -0.645065,-0.0756 -1.361277,-0.32633 -2.167609,-0.75613 -0.54546,-0.29052 -1.328076,-0.62481 -1.754957,-0.7442 l -0.332019,-0.0915 0.308303,0.0239 c 0.735185,0.0557 1.7597,0.27857 3.111492,0.6646 1.095662,0.31837 1.418195,0.36215 2.475913,0.33429 0.84902,-0.0239 0.867992,-0.0199 0.792102,0.0517 -0.123321,0.11541 -0.77313,0.38205 -1.090919,0.45368 -0.369964,0.0796 -0.967599,0.10746 -1.342306,0.0637 z"
         style="fill:#ffcb78;fill-opacity:1;stroke:none;stroke-width:0.00434465" />
      <path
         inkscape:connector-curvature="0"
         id="path34"
         d="m 33.218061,280.32271 c -0.483799,-0.0517 -1.133607,-0.27459 -1.446654,-0.49348 l -0.142294,-0.0995 0.834791,0.0239 c 1.067203,0.0318 1.403966,-0.0119 2.461684,-0.31439 1.446653,-0.40991 2.414252,-0.62083 3.201611,-0.68848 l 0.284587,-0.0239 -0.346249,0.10347 c -0.460082,0.13531 -1.109891,0.40991 -1.702781,0.7243 -0.901195,0.47358 -1.54626,0.69246 -2.257729,0.76807 -0.42214,0.0438 -0.493286,0.0438 -0.886966,0 z"
         style="fill:#ffcb78;fill-opacity:1;stroke:none;stroke-width:0.00434465" />
      <path
         inkscape:connector-curvature="0"
         id="path36"
         d="m 47.020564,280.32669 c -0.374707,-0.10347 -0.720956,-0.37807 -0.806332,-0.63674 -0.2419,-0.73624 0.398422,-1.42074 1.261672,-1.34512 0.436367,0.0358 0.830048,0.27857 1.005543,0.62082 0.0996,0.195 0.09486,0.62481 -0.01423,0.79991 -0.113836,0.195 -0.346249,0.39001 -0.569176,0.48552 -0.203955,0.0876 -0.68301,0.13132 -0.877479,0.0756 z"
         style="fill:#ffcb78;fill-opacity:1;stroke:none;stroke-width:0.00434465" />
      <path
         inkscape:connector-curvature="0"
         id="path38"
         d="m 8.506364,280.06801 c -0.2466427,-0.0279 -0.4600835,-0.0557 -0.4743128,-0.0597 -0.014229,-0.004 0.1470369,-0.0597 0.3557346,-0.12735 0.5739184,-0.17908 1.2094976,-0.4497 1.4371677,-0.61287 0.1138352,-0.0836 0.2086975,-0.14326 0.2181835,-0.1353 0.0047,0.008 0.113836,0.14724 0.2419,0.30643 0.213441,0.27857 0.53123,0.52531 0.673524,0.52531 0.113835,0 0.0664,0.0677 -0.0664,0.0995 -0.256129,0.0517 -1.9257096,0.0557 -2.385793,0.004 z"
         style="fill:#ffcb78;fill-opacity:1;stroke:none;stroke-width:0.00434465" />
      <path
         inkscape:connector-curvature="0"
         id="path40"
         d="m 50.079881,280.10383 c -0.02372,-0.008 -0.147037,-0.0239 -0.270357,-0.0398 -0.128066,-0.0119 -0.227671,-0.0398 -0.227671,-0.0637 0,-0.0199 0.02846,-0.0358 0.06166,-0.0358 0.147036,0 0.464826,-0.25071 0.69724,-0.54521 l 0.246642,-0.31041 0.180239,0.14327 c 0.199212,0.15918 0.863249,0.4497 1.446654,0.62878 0.213441,0.0637 0.350991,0.12337 0.308303,0.13531 -0.246643,0.0756 -2.243499,0.14327 -2.442711,0.0876 z"
         style="fill:#ffcb78;fill-opacity:1;stroke:none;stroke-width:0.00434465" />
      <path
         inkscape:connector-curvature="0"
         id="path42"
         d="m 6.0399373,279.5626 c -0.1944682,-0.0438 -0.5027715,-0.15123 -0.6877535,-0.24276 -0.1802389,-0.0915 -0.5549459,-0.26266 -0.8300474,-0.38205 -0.4932854,-0.2149 -0.4980285,-0.2149 -0.2608721,-0.19102 0.3889365,0.0478 0.8158181,0.14327 1.4940853,0.33429 0.6166067,0.17909 0.6687811,0.18306 1.328076,0.20694 l 0.6830104,0.0199 -0.2798445,0.12337 c -0.294074,0.13133 -0.6735242,0.2149 -0.9391395,0.21092 -0.085376,0 -0.3130464,-0.0358 -0.5075147,-0.0796 z"
         style="fill:#ffcb78;fill-opacity:1;stroke:none;stroke-width:0.00434465" />
      <path
         inkscape:connector-curvature="0"
         id="path44"
         d="m 53.874384,279.62229 c -0.298817,-0.0597 -0.578661,-0.15122 -0.725699,-0.2348 l -0.161265,-0.0915 0.683009,-0.0159 c 0.659296,-0.0159 0.69724,-0.0199 1.31859,-0.19898 0.350991,-0.0995 0.735185,-0.20296 0.853763,-0.22684 0.265615,-0.0557 0.920167,-0.15919 0.934396,-0.14725 0.0095,0.004 -0.109092,0.0517 -0.260871,0.10348 -0.147038,0.0478 -0.517002,0.21092 -0.815819,0.36214 -0.298816,0.14725 -0.673524,0.30644 -0.83479,0.35021 -0.294074,0.0796 -0.820562,0.13531 -0.991314,0.0995 z"
         style="fill:#ffcb78;fill-opacity:1;stroke:none;stroke-width:0.00434465" />
      <path
         inkscape:connector-curvature="0"
         id="path46"
         d="m 42.291666,278.78259 c 0.04269,-0.008 0.109092,-0.008 0.142293,0 0.02846,0.0119 -0.0047,0.0199 -0.08538,0.0199 -0.07589,0 -0.104349,-0.008 -0.05692,-0.0199 z"
         style="fill:#ffcb78;fill-opacity:1;stroke:none;stroke-width:0.00434465" />
    </g>
  </g>
</svg>
