<?xml version="1.0" encoding="UTF-8" standalone="no"?>
<!-- Created with Inkscape (http://www.inkscape.org/) -->

<svg
   xmlns:osb="http://www.openswatchbook.org/uri/2009/osb"
   xmlns:dc="http://purl.org/dc/elements/1.1/"
   xmlns:cc="http://creativecommons.org/ns#"
   xmlns:rdf="http://www.w3.org/1999/02/22-rdf-syntax-ns#"
   xmlns:svg="http://www.w3.org/2000/svg"
   xmlns="http://www.w3.org/2000/svg"
   xmlns:xlink="http://www.w3.org/1999/xlink"
   xmlns:sodipodi="http://sodipodi.sourceforge.net/DTD/sodipodi-0.dtd"
   xmlns:inkscape="http://www.inkscape.org/namespaces/inkscape"
   width="206.23087"
   height="19.820705"
   viewBox="0 0 54.565249 5.2442285"
   version="1.1"
   id="svg8"
   inkscape:version="0.92.4 (unknown)"
   sodipodi:docname="1.svg">
  <defs
     id="defs2">
    <linearGradient
       id="linearGradient4616"
       osb:paint="solid">
      <stop
         style="stop-color:#ffcb78;stop-opacity:1;"
         offset="0"
         id="stop4614" />
    </linearGradient>
    <linearGradient
       inkscape:collect="always"
       xlink:href="#linearGradient4616"
       id="linearGradient4618"
       x1="-99.058235"
       y1="158.66071"
       x2="307.70111"
       y2="158.66071"
       gradientUnits="userSpaceOnUse" />
    <linearGradient
       inkscape:collect="always"
       xlink:href="#linearGradient4616"
       id="linearGradient4620"
       gradientUnits="userSpaceOnUse"
       x1="-99.058235"
       y1="158.66071"
       x2="307.70111"
       y2="158.66071" />
    <linearGradient
       inkscape:collect="always"
       xlink:href="#linearGradient4616"
       id="linearGradient4622"
       gradientUnits="userSpaceOnUse"
       x1="-99.058235"
       y1="158.66071"
       x2="307.70111"
       y2="158.66071" />
    <linearGradient
       inkscape:collect="always"
       xlink:href="#linearGradient4616"
       id="linearGradient4624"
       gradientUnits="userSpaceOnUse"
       x1="-99.058235"
       y1="158.66071"
       x2="307.70111"
       y2="158.66071" />
    <linearGradient
       inkscape:collect="always"
       xlink:href="#linearGradient4616"
       id="linearGradient4626"
       gradientUnits="userSpaceOnUse"
       x1="-99.058235"
       y1="158.66071"
       x2="307.70111"
       y2="158.66071" />
    <linearGradient
       inkscape:collect="always"
       xlink:href="#linearGradient4616"
       id="linearGradient4628"
       gradientUnits="userSpaceOnUse"
       x1="-99.058235"
       y1="158.66071"
       x2="307.70111"
       y2="158.66071" />
    <linearGradient
       inkscape:collect="always"
       xlink:href="#linearGradient4616"
       id="linearGradient4630"
       gradientUnits="userSpaceOnUse"
       x1="-99.058235"
       y1="158.66071"
       x2="307.70111"
       y2="158.66071" />
    <linearGradient
       inkscape:collect="always"
       xlink:href="#linearGradient4616"
       id="linearGradient4632"
       gradientUnits="userSpaceOnUse"
       x1="-99.058235"
       y1="158.66071"
       x2="307.70111"
       y2="158.66071" />
    <linearGradient
       inkscape:collect="always"
       xlink:href="#linearGradient4616"
       id="linearGradient4634"
       gradientUnits="userSpaceOnUse"
       x1="-99.058235"
       y1="158.66071"
       x2="307.70111"
       y2="158.66071" />
    <linearGradient
       inkscape:collect="always"
       xlink:href="#linearGradient4616"
       id="linearGradient4636"
       gradientUnits="userSpaceOnUse"
       x1="-99.058235"
       y1="158.66071"
       x2="307.70111"
       y2="158.66071" />
    <linearGradient
       inkscape:collect="always"
       xlink:href="#linearGradient4616"
       id="linearGradient4638"
       gradientUnits="userSpaceOnUse"
       x1="-99.058235"
       y1="158.66071"
       x2="307.70111"
       y2="158.66071" />
    <linearGradient
       inkscape:collect="always"
       xlink:href="#linearGradient4616"
       id="linearGradient4640"
       gradientUnits="userSpaceOnUse"
       x1="-99.058235"
       y1="158.66071"
       x2="307.70111"
       y2="158.66071" />
    <linearGradient
       inkscape:collect="always"
       xlink:href="#linearGradient4616"
       id="linearGradient4642"
       gradientUnits="userSpaceOnUse"
       x1="-99.058235"
       y1="158.66071"
       x2="307.70111"
       y2="158.66071" />
    <linearGradient
       inkscape:collect="always"
       xlink:href="#linearGradient4616"
       id="linearGradient4644"
       gradientUnits="userSpaceOnUse"
       x1="-99.058235"
       y1="158.66071"
       x2="307.70111"
       y2="158.66071" />
    <linearGradient
       inkscape:collect="always"
       xlink:href="#linearGradient4616"
       id="linearGradient4646"
       gradientUnits="userSpaceOnUse"
       x1="-99.058235"
       y1="158.66071"
       x2="307.70111"
       y2="158.66071" />
    <linearGradient
       inkscape:collect="always"
       xlink:href="#linearGradient4616"
       id="linearGradient4648"
       gradientUnits="userSpaceOnUse"
       x1="-99.058235"
       y1="158.66071"
       x2="307.70111"
       y2="158.66071" />
    <linearGradient
       inkscape:collect="always"
       xlink:href="#linearGradient4616"
       id="linearGradient4650"
       gradientUnits="userSpaceOnUse"
       x1="-99.058235"
       y1="158.66071"
       x2="307.70111"
       y2="158.66071" />
    <linearGradient
       inkscape:collect="always"
       xlink:href="#linearGradient4616"
       id="linearGradient4652"
       gradientUnits="userSpaceOnUse"
       x1="-99.058235"
       y1="158.66071"
       x2="307.70111"
       y2="158.66071" />
    <linearGradient
       inkscape:collect="always"
       xlink:href="#linearGradient4616"
       id="linearGradient4654"
       gradientUnits="userSpaceOnUse"
       x1="-99.058235"
       y1="158.66071"
       x2="307.70111"
       y2="158.66071" />
    <linearGradient
       inkscape:collect="always"
       xlink:href="#linearGradient4616"
       id="linearGradient4656"
       gradientUnits="userSpaceOnUse"
       x1="-99.058235"
       y1="158.66071"
       x2="307.70111"
       y2="158.66071" />
    <linearGradient
       inkscape:collect="always"
       xlink:href="#linearGradient4616"
       id="linearGradient4658"
       gradientUnits="userSpaceOnUse"
       x1="-99.058235"
       y1="158.66071"
       x2="307.70111"
       y2="158.66071" />
    <linearGradient
       inkscape:collect="always"
       xlink:href="#linearGradient4616"
       id="linearGradient4660"
       gradientUnits="userSpaceOnUse"
       x1="-99.058235"
       y1="158.66071"
       x2="307.70111"
       y2="158.66071" />
    <linearGradient
       inkscape:collect="always"
       xlink:href="#linearGradient4616"
       id="linearGradient4662"
       gradientUnits="userSpaceOnUse"
       x1="-99.058235"
       y1="158.66071"
       x2="307.70111"
       y2="158.66071" />
  </defs>
  <sodipodi:namedview
     id="base"
     pagecolor="#ffffff"
     bordercolor="#666666"
     borderopacity="1.0"
     inkscape:pageopacity="0.0"
     inkscape:pageshadow="2"
     inkscape:zoom="4.4535688"
     inkscape:cx="79.238713"
     inkscape:cy="24.220305"
     inkscape:document-units="px"
     inkscape:current-layer="layer1"
     showgrid="false"
     units="px"
     inkscape:snap-grids="true"
     showguides="true"
     inkscape:guide-bbox="true"
     inkscape:lockguides="true"
     inkscape:showpageshadow="false"
     inkscape:pagecheckerboard="false"
     showborder="true"
     fit-margin-top="0"
     fit-margin-left="0"
     fit-margin-right="0"
     fit-margin-bottom="0"
     inkscape:window-width="1920"
     inkscape:window-height="996"
     inkscape:window-x="0"
     inkscape:window-y="0"
     inkscape:window-maximized="1">
    <sodipodi:guide
       position="47.369619,-151.13165"
       orientation="0,1"
       id="guide4664"
       inkscape:locked="true" />
  </sodipodi:namedview>
  <metadata
     id="metadata5">
    <rdf:RDF>
      <cc:Work
         rdf:about="">
        <dc:format>image/svg+xml</dc:format>
        <dc:type
           rdf:resource="http://purl.org/dc/dcmitype/StillImage" />
        <dc:title />
      </cc:Work>
    </rdf:RDF>
  </metadata>
  <g
     inkscape:label="Layer 1"
     inkscape:groupmode="layer"
     id="layer1"
     style="display:inline"
     transform="translate(-3.0268347,-278.33872)">
    <g
       id="g3807"
       style="opacity:1;fill:url(#linearGradient4618);fill-opacity:1"
       transform="matrix(0.13414628,0,0,0.11843566,16.315128,262.16975)">
      <path
         inkscape:connector-curvature="0"
         id="path4"
         d="m 99.174706,137.15403 c -2.439694,0.80644 -4.207588,2.18412 -5.621903,4.40183 -3.641862,5.6787 -1.414316,12.49986 4.985461,15.32241 2.545766,1.10886 6.399776,1.10886 8.910186,0 4.2783,-1.8817 6.61192,-5.27548 6.64728,-9.61011 0.0354,-2.21771 -0.10607,-2.82254 -1.13145,-4.80505 -2.54577,-4.93946 -8.27375,-7.12357 -13.789574,-5.30908 z"
         style="fill:url(#linearGradient4620);fill-opacity:1;stroke:none;stroke-width:0.03446864;opacity:1;" />
      <path
         inkscape:connector-curvature="0"
         id="path6"
         d="m 57.055876,147.58378 c -6.152272,1.24326 -14.284584,4.73784 -24.043359,10.28214 -5.904766,3.32657 -9.900206,5.30908 -12.693479,6.24993 -8.591965,2.85615 -16.8303506,2.99055 -24.5737263,0.40322 -2.8286304,-0.94085 -7.1422917,-3.05776 -9.1930487,-4.56984 -1.131452,-0.84005 -0.954663,-0.57123 0.848589,1.20966 5.5511872,5.47709 11.3852374,8.13163 18.7396764,8.50125 4.5611666,0.20161 8.0615966,-0.23521 12.6227636,-1.61289 4.561166,-1.37767 8.061596,-3.09136 13.683499,-6.65315 18.067877,-11.4582 32.776755,-14.65037 46.000602,-9.94612 1.980041,0.70564 -1.378957,-1.10886 -4.17223,-2.25132 -5.692619,-2.35212 -11.17309,-2.85615 -17.219287,-1.61288 z"
         style="fill:url(#linearGradient4622);fill-opacity:1;stroke:none;stroke-width:0.03446864;opacity:1;" />
      <path
         inkscape:connector-curvature="0"
         id="path8"
         d="m 139.93475,147.41577 c -2.58113,0.53762 -6.32906,1.9153 -8.87483,3.25937 -1.94468,1.04165 -2.61648,1.64648 -0.84859,0.80644 2.65184,-1.31047 6.82407,-2.01611 11.88025,-2.01611 10.9963,0 21.42687,3.7298 34.93358,12.46626 4.73796,3.05776 7.84945,4.56984 12.44598,5.98112 12.23382,3.8306 22.6644,1.71369 31.57458,-6.35074 2.22755,-1.9825 2.54577,-2.78895 0.53037,-1.34407 -2.36898,1.71369 -8.23838,4.36823 -11.63274,5.17467 -4.17223,1.04166 -10.18307,1.24327 -14.49673,0.50403 -6.36442,-1.07526 -10.9963,-2.92335 -19.58827,-7.89642 -5.76333,-3.32657 -15.76961,-8.03082 -19.51755,-9.20688 -5.90476,-1.8145 -11.84489,-2.31852 -16.40605,-1.37767 z"
         style="fill:url(#linearGradient4624);fill-opacity:1;stroke:none;stroke-width:0.03446864;opacity:1;" />
      <path
         inkscape:connector-curvature="0"
         id="path10"
         d="m 84.988601,151.14556 c 4.490451,2.62094 8.980901,6.45154 13.577426,11.55901 1.803253,2.01611 0.671799,0.16801 -1.555747,-2.52013 -3.323641,-3.99861 -7.814091,-7.5604 -11.915606,-9.5429 -3.111493,-1.47848 -3.146851,-1.27687 -0.106073,0.50402 z"
         style="fill:url(#linearGradient4626);fill-opacity:1;stroke:none;stroke-width:0.03446864;opacity:1;" />
      <path
         inkscape:connector-curvature="0"
         id="path12"
         d="m 121.86687,150.91035 c -1.41432,0.70564 -3.46507,1.9489 -4.52581,2.72174 -2.61648,1.9153 -6.68264,6.08192 -8.59196,8.77007 l -1.55575,2.15051 1.52039,-1.68009 c 5.02082,-5.51069 9.15769,-9.03888 13.75421,-11.76062 3.18221,-1.8481 2.86399,-1.9489 -0.60108,-0.20161 z"
         style="fill:url(#linearGradient4628);fill-opacity:1;stroke:none;stroke-width:0.03446864;opacity:1;" />
      <path
         inkscape:connector-curvature="0"
         id="path14"
         d="m 61.122032,153.53129 c -7.460513,1.47848 -12.198469,3.7634 -23.654422,11.32379 -6.859429,4.50264 -13.860289,7.4596 -21.073296,8.80367 l -3.358999,0.63843 4.773314,0.10081 c 9.758775,0.23521 13.612784,-1.14246 28.144872,-10.08053 12.269185,-7.5604 17.67894,-9.91253 24.538369,-10.68537 1.83861,-0.23521 3.429714,-0.47042 3.50043,-0.53762 0.424295,-0.36962 -10.67808,-0.0336 -12.870268,0.43682 z"
         style="fill:url(#linearGradient4630);fill-opacity:1;stroke:none;stroke-width:0.03446864;opacity:1;" />
      <path
         inkscape:connector-curvature="0"
         id="path16"
         d="m 134.48963,153.06086 c 0.10608,0.10081 1.69718,0.33602 3.53579,0.57123 6.11691,0.67204 11.84489,2.95696 20.26007,8.03083 2.47505,1.51208 6.50585,3.9314 9.01626,5.44348 10.21842,6.18273 14.46137,7.4932 23.40691,7.29159 l 4.77332,-0.10081 -3.359,-0.63843 c -6.57657,-1.24327 -13.75422,-4.13302 -19.80042,-7.99722 -1.83861,-1.20967 -5.16225,-3.32658 -7.35443,-4.73785 -4.84403,-3.12497 -9.26377,-5.20828 -14.21387,-6.65315 -3.46507,-1.00806 -4.17223,-1.07526 -10.077,-1.20967 -3.50043,-0.1008 -6.2937,-0.1008 -6.18763,0 z"
         style="fill:url(#linearGradient4632);fill-opacity:1;stroke:none;stroke-width:0.03446864;opacity:1;" />
      <path
         inkscape:connector-curvature="0"
         id="path18"
         d="m -78.011226,155.31218 c -9.369838,0.97445 -16.724277,7.25798 -19.906486,16.9689 -0.459653,1.47847 -0.954663,3.29297 -1.096095,4.03221 -0.141431,1.00805 0.03536,0.73924 0.813232,-1.17606 1.66182,-4.20022 4.101514,-7.4596 7.425154,-9.91253 7.814092,-5.67869 18.103235,-6.68675 37.161132,-3.66259 11.986322,1.9153 17.961803,1.9153 24.078716,0 2.793273,-0.87364 7.531229,-2.85615 7.35444,-3.05776 -0.07072,-0.0672 -1.414316,0.20161 -2.970062,0.57123 -2.439694,0.60483 -3.960083,0.70564 -10.784154,0.70564 -9.970922,0.0336 -13.153131,-0.36962 -30.054198,-3.7298 -4.101514,-0.84004 -8.485891,-1.07526 -12.021679,-0.73924 z"
         style="fill:url(#linearGradient4634);fill-opacity:1;stroke:none;stroke-width:0.03446864;opacity:1;" />
      <path
         inkscape:connector-curvature="0"
         id="path20"
         d="m 279.10336,155.31218 c -1.44967,0.13441 -4.49045,0.63844 -6.718,1.14246 -12.3399,2.62094 -18.42145,3.36018 -27.75593,3.36018 -7.00086,-0.0336 -9.79413,-0.30242 -13.54207,-1.34407 -0.31822,-0.10081 0.35358,0.30241 1.52039,0.90725 2.82863,1.44487 7.42515,2.88975 10.53665,3.36017 3.57114,0.53763 11.13773,0.16801 16.86571,-0.84004 12.90562,-2.21772 23.26548,-2.58734 29.87741,-1.04166 1.16681,0.26882 3.6065,1.20967 5.44511,2.04971 5.44511,2.55374 9.47591,6.88837 11.52667,12.46626 1.06073,2.82255 1.13145,2.15051 0.14143,-1.41128 -3.67722,-13.4071 -13.6835,-20.06025 -27.89737,-18.64898 z"
         style="fill:url(#linearGradient4636);fill-opacity:1;stroke:none;stroke-width:0.03446864;opacity:1;" />
      <path
         inkscape:connector-curvature="0"
         id="path22"
         d="m 75.265184,157.19388 c -8.203028,1.14246 -15.663541,4.16662 -25.033379,10.11413 -5.763335,3.6626 -10.359859,5.94752 -14.921026,7.426 -5.621903,1.81449 -8.556607,2.25131 -15.380677,2.25131 -6.01084,0 -6.116914,0 -3.889367,0.43683 3.182209,0.60483 14.00172,0.67203 17.325361,0.1344 6.894787,-1.17606 11.774174,-3.02416 18.386098,-6.95556 10.395216,-6.21633 19.163971,-9.13968 28.463093,-9.4757 6.824071,-0.23521 12.021679,0.77284 16.794993,3.32657 1.025379,0.57123 0.883947,0.33602 -0.883947,-1.31047 -4.030798,-3.69619 -9.51127,-5.7795 -15.911046,-5.98111 -2.121473,-0.0672 -4.349019,-0.0336 -4.950103,0.0336 z"
         style="fill:url(#linearGradient4638);fill-opacity:1;stroke:none;stroke-width:0.03446864;opacity:1;" />
      <path
         inkscape:connector-curvature="0"
         id="path24"
         d="m 124.41264,157.4963 c -4.84403,0.87364 -8.66268,2.65454 -11.95097,5.61149 -1.20216,1.10886 -2.0154,1.94891 -1.83861,1.8817 0.21215,-0.0672 1.55575,-0.67203 3.00542,-1.37767 3.74794,-1.74729 6.25835,-2.28492 11.38524,-2.48653 10.43058,-0.43682 20.26007,2.55373 32.49389,9.81172 6.11692,3.66259 10.96095,5.44348 17.64358,6.58594 3.1115,0.53763 11.84489,0.60483 15.38068,0.13441 2.4397,-0.30242 2.40434,-0.30242 -3.00542,-0.53763 -10.9963,-0.43682 -17.7143,-2.68814 -28.92274,-9.67731 -13.93101,-8.66926 -24.36158,-11.69341 -34.19107,-9.94612 z"
         style="fill:url(#linearGradient4640);fill-opacity:1;stroke:none;stroke-width:0.03446864;opacity:1;" />
      <path
         inkscape:connector-curvature="0"
         id="path26"
         d="m -16.948167,158.40355 c 0.106073,0.60483 0.601084,2.0497 1.096094,3.22576 2.439694,5.88031 7.5312285,10.68537 14.7088781,13.84393 3.7832932,1.68009 5.1976084,2.01611 2.5104095,0.60484 -4.3136614,-2.25132 -7.6373021,-4.90586 -11.1023743,-8.83727 -2.4396933,-2.75534 -5.4804713,-6.85476 -6.5412083,-8.83726 -0.31822,-0.57124 -0.671799,-1.07526 -0.742515,-1.07526 -0.07072,0 -0.07072,0.50402 0.07072,1.07526 z"
         style="fill:url(#linearGradient4642);fill-opacity:1;stroke:none;stroke-width:0.03446864;opacity:1;" />
      <path
         inkscape:connector-curvature="0"
         id="path28"
         d="m 223.90971,159.98283 c -4.66724,7.29158 -10.46593,12.90308 -16.3707,15.89364 -3.78329,1.9153 -2.08611,1.51208 2.4397,-0.53763 6.5412,-3.02416 10.89022,-6.82116 13.54206,-11.82783 1.02538,-1.9153 2.40434,-5.7795 2.12148,-6.01471 -0.0354,-0.0336 -0.84859,1.07525 -1.73254,2.48653 z"
         style="fill:url(#linearGradient4644);fill-opacity:1;stroke:none;stroke-width:0.03446864;opacity:1;" />
      <path
         inkscape:connector-curvature="0"
         id="path30"
         d="m -25.822995,164.18305 c -6.717997,2.38573 -8.061597,10.78617 -2.404336,14.88558 1.873968,1.34407 3.960083,1.9153 6.293703,1.68009 2.227546,-0.20161 3.783293,-0.94085 5.551187,-2.52013 1.449673,-1.34407 2.722557,-4.09942 2.722557,-5.94751 0,-2.88976 -2.33362,-6.31714 -5.303682,-7.72841 -1.626463,-0.80644 -5.126893,-0.97445 -6.859429,-0.36962 z"
         style="fill:url(#linearGradient4646);fill-opacity:1;stroke:none;stroke-width:0.03446864;opacity:1;" />
      <path
         inkscape:connector-curvature="0"
         id="path32"
         d="m 75.512689,164.04864 c -4.808672,0.63844 -10.147712,2.75535 -16.158551,6.38434 -4.066156,2.45293 -9.900207,5.27548 -13.082416,6.28353 l -2.475051,0.77284 2.298262,-0.20161 c 5.480471,-0.47043 13.117773,-2.35212 23.194769,-5.6115 8.16767,-2.68814 10.572006,-3.05776 18.456813,-2.82254 6.329061,0.20161 6.470492,0.168 5.904766,-0.43683 -0.919304,-0.97445 -5.763334,-3.22577 -8.132312,-3.8306 -2.757915,-0.67203 -7.213008,-0.90725 -10.00628,-0.53763 z"
         style="fill:url(#linearGradient4648);fill-opacity:1;stroke:none;stroke-width:0.03446864;opacity:1;" />
      <path
         inkscape:connector-curvature="0"
         id="path34"
         d="m 126.00374,164.04864 c -3.6065,0.43683 -8.45053,2.31852 -10.78415,4.16662 l -1.06074,0.84005 6.22299,-0.20161 c 7.95552,-0.26882 10.46593,0.1008 18.35074,2.65454 10.78415,3.46098 17.99716,5.24187 23.86657,5.8131 l 2.12147,0.20161 -2.58113,-0.87364 c -3.42971,-1.14246 -8.27374,-3.46099 -12.69347,-6.11553 -6.718,-3.99861 -11.52667,-5.8467 -16.83035,-6.48514 -3.14686,-0.36962 -3.67722,-0.36962 -6.61193,0 z"
         style="fill:url(#linearGradient4650);fill-opacity:1;stroke:none;stroke-width:0.03446864;opacity:1;" />
      <path
         inkscape:connector-curvature="0"
         id="path36"
         d="m 228.89517,164.01504 c -2.79327,0.87365 -5.3744,3.19217 -6.01084,5.37628 -1.80325,6.21633 2.97006,11.99584 9.4052,11.3574 3.25292,-0.30241 6.18763,-2.35212 7.49587,-5.24187 0.74251,-1.64649 0.70716,-5.27548 -0.10607,-6.75396 -0.84859,-1.64649 -2.58113,-3.29297 -4.24295,-4.09942 -1.52039,-0.73923 -5.09153,-1.10885 -6.54121,-0.63843 z"
         style="fill:url(#linearGradient4652);fill-opacity:1;stroke:none;stroke-width:0.03446864;opacity:1;" />
      <path
         inkscape:connector-curvature="0"
         id="path38"
         d="m -58.210813,166.19916 c -1.83861,0.23521 -3.429715,0.47042 -3.535788,0.50402 -0.106074,0.0336 1.096094,0.50403 2.651841,1.07526 4.278303,1.51208 9.016259,3.797 10.713437,5.17467 0.84859,0.70564 1.555747,1.20967 1.626463,1.14246 0.03536,-0.0672 0.848589,-1.24326 1.803252,-2.58733 1.591104,-2.35213 3.960082,-4.43544 5.020819,-4.43544 0.848589,0 0.49501,-0.57123 -0.495011,-0.84004 -1.909325,-0.43683 -14.355299,-0.47043 -17.785013,-0.0336 z"
         style="fill:url(#linearGradient4654);fill-opacity:1;stroke:none;stroke-width:0.03446864;opacity:1;" />
      <path
         inkscape:connector-curvature="0"
         id="path40"
         d="m 251.701,165.89674 c -0.17678,0.0672 -1.09609,0.20161 -2.01539,0.33602 -0.95467,0.1008 -1.69718,0.33602 -1.69718,0.53763 0,0.168 0.21214,0.30241 0.45965,0.30241 1.09609,0 3.46507,2.11691 5.19761,4.60344 l 1.83861,2.62094 1.3436,-1.20966 c 1.48503,-1.34407 6.43513,-3.797 10.78415,-5.30908 1.59111,-0.53763 2.61648,-1.04166 2.29826,-1.14246 -1.83861,-0.63843 -16.72427,-1.20967 -18.20931,-0.73924 z"
         style="fill:url(#linearGradient4656);fill-opacity:1;stroke:none;stroke-width:0.03446864;opacity:1;" />
      <path
         inkscape:connector-curvature="0"
         id="path42"
         d="m -76.596911,170.46658 c -1.449673,0.36962 -3.747935,1.27687 -5.126892,2.04971 -1.3436,0.77284 -4.136872,2.21772 -6.187629,3.22577 -3.67722,1.81449 -3.712578,1.81449 -1.944684,1.61288 2.899346,-0.40322 6.081556,-1.20966 11.137732,-2.82255 4.596525,-1.51208 4.985461,-1.54568 9.900207,-1.74729 l 5.091535,-0.16801 -2.086115,-1.04165 c -2.192189,-1.10886 -5.020819,-1.8145 -7.000861,-1.78089 -0.636441,0 -2.33362,0.30241 -3.783293,0.67203 z"
         style="fill:url(#linearGradient4658);fill-opacity:1;stroke:none;stroke-width:0.03446864;opacity:1;" />
      <path
         inkscape:connector-curvature="0"
         id="path44"
         d="m 279.98731,169.96255 c -2.22755,0.50403 -4.31366,1.27687 -5.40976,1.98251 l -1.20216,0.77284 5.09153,0.13441 c 4.91475,0.1344 5.19761,0.168 9.82949,1.68008 2.61648,0.84005 5.48047,1.71369 6.36442,1.91531 1.98004,0.47042 6.85943,1.34407 6.9655,1.24326 0.0707,-0.0336 -0.81323,-0.43682 -1.94468,-0.87365 -1.0961,-0.40322 -3.85401,-1.78089 -6.08156,-3.05776 -2.22754,-1.24326 -5.02082,-2.58733 -6.22298,-2.95695 -2.19219,-0.67204 -6.11692,-1.14246 -7.3898,-0.84005 z"
         style="fill:url(#linearGradient4660);fill-opacity:1;stroke:none;stroke-width:0.03446864;opacity:1;" />
      <path
         inkscape:connector-curvature="0"
         id="path46"
         d="m 193.64337,177.05253 c 0.31822,0.0672 0.81323,0.0672 1.06073,0 0.21215,-0.10081 -0.0354,-0.16801 -0.63644,-0.16801 -0.56573,0 -0.77787,0.0672 -0.42429,0.16801 z"
         style="fill:url(#linearGradient4662);fill-opacity:1;stroke:none;stroke-width:0.03446864;opacity:1;" />
    </g>
  </g>
</svg>
